<svg width="512.000000pt" height="512.000000pt" viewBox="0 0 512.000000 512.000000" xmlns="http://www.w3.org/2000/svg">
  <g transform="translate(0.000000,512.000000) scale(0.100000,-0.100000)" fill="#343a40" stroke="none">
    <path d="M220 5098 c-77 -30 -169 -123 -198 -201 -36 -95 -29 -4629 6 -4696
36 -67 108 -137 175 -171 95 -48 4619 -48 4714 0 72 36 145 110 178 183 43 92
38 4618 -5 4704 -34 67 -104 139 -171 175 -66 35 -4608 41 -4699 6z m2531
-1248 c1771 -83 2762 -1099 1887 -1935 -952 -911 -3491 -836 -4271 125 -658
811 357 1735 1988 1810 88 4 167 7 175 8 8 1 108 -3 221 -8z" />
    <path d="M2307 3473 c-9 -15 -247 -1168 -247 -1196 0 -28 0 -28 138 -25 148 3
135 -26 252 541 11 57 11 57 143 57 231 0 231 -1 163 -329 -63 -301 -74 -271
93 -271 139 0 139 0 145 25 179 713 147 794 -311 795 -106 0 -173 4 -173 10 0
5 16 84 35 176 52 245 61 224 -99 224 -74 0 -137 -3 -139 -7z" />
    <path d="M1145 3058 c-2 -7 -47 -245 -99 -528 -53 -283 -98 -530 -102 -547 -9
-44 279 -54 289 -10 3 12 15 79 28 148 22 126 22 126 198 132 331 12 466 73
549 248 113 237 56 464 -136 541 -70 28 -718 42 -727 16z m539 -219 c150 -42
114 -293 -49 -347 -70 -24 -305 -29 -305 -7 0 18 58 328 65 353 6 16 233 17
289 1z" />
    <path d="M3255 3058 c-4 -13 -205 -1092 -205 -1103 0 -3 65 -5 145 -5 80 0
145 3 145 6 0 9 39 244 45 270 4 20 13 21 182 27 333 12 468 73 551 248 110
234 47 472 -146 545 -62 24 -709 35 -717 12z m537 -218 c114 -32 131 -197 30
-298 -51 -51 -95 -63 -253 -69 -136 -5 -136 -5 -119 88 10 52 25 138 35 192
17 97 17 97 143 97 70 0 144 -5 164 -10z" />
  </g>
  <g transform="translate(0.000000,512.000000) scale(0.100000,-0.100000)" fill="#fefefe" stroke="none">
    <path d="M1 4958 c0 -163 0 -163 18 -106 41 127 122 208 251 249 55 18 55 18
-107 18 -163 1 -163 1 -162 -161z" />
    <path d="M4842 5105 c126 -34 238 -148 267 -272 7 -28 9 6 10 125 1 162 1 162
-161 161 -152 -1 -160 -2 -116 -14z" />
    <path d="M2345 3860 c-1499 -69 -2492 -845 -2105 -1645 449 -929 2616 -1269
3945 -620 1266 618 952 1761 -590 2149 -290 72 -837 136 -1065 124 -14 -1 -97
-4 -185 -8z m225 -409 c0 -11 -16 -94 -35 -185 -19 -92 -35 -175 -35 -186 0
-19 7 -20 173 -20 456 -1 486 -76 311 -775 -8 -32 -264 -41 -264 -8 0 9 21
114 46 234 72 346 71 349 -173 349 -142 0 -142 0 -153 -57 -117 -565 -104
-538 -242 -541 -117 -2 -128 -1 -128 15 0 21 240 1175 247 1186 11 19 253 8
253 -12z m-708 -419 c190 -77 246 -291 136 -521 -83 -175 -218 -236 -549 -248
-176 -6 -176 -6 -198 -132 -13 -69 -25 -136 -28 -148 -5 -22 -8 -23 -140 -23
-123 0 -134 1 -129 18 3 9 48 251 101 537 53 286 98 526 100 533 9 26 637 12
707 -16z m2100 4 c191 -72 254 -297 146 -525 -83 -175 -218 -236 -551 -248
-169 -6 -178 -7 -182 -27 -6 -26 -45 -261 -45 -270 0 -3 -61 -6 -136 -6 -124
0 -135 1 -130 18 3 9 48 251 101 537 53 286 98 526 100 533 8 23 635 12 697
-12z" />
    <path d="M1385 2848 c-2 -7 -18 -87 -34 -178 -17 -91 -34 -176 -37 -189 -6
-27 249 -27 331 0 166 56 202 326 49 368 -57 16 -303 15 -309 -1z" />
    <path d="M3490 2854 c0 -9 -61 -347 -67 -373 -7 -27 250 -27 332 0 164 56 199
326 47 369 -38 10 -312 14 -312 4z" />
    <path d="M1 163 c-1 -163 -1 -163 162 -162 118 1 152 3 124 10 -124 29 -238
141 -272 267 -12 44 -13 36 -14 -115z" />
    <path d="M5110 298 c-1 -100 -143 -250 -269 -284 -42 -12 -31 -13 117 -13 162
-1 162 -1 162 159 0 88 -2 160 -5 160 -3 0 -5 -10 -5 -22z" />
  </g>
</svg>