<svg width="300.000000pt" height="300.000000pt" viewBox="0 0 300.000000 300.000000" xmlns="http://www.w3.org/2000/svg">
  <g transform="translate(0.000000,300.000000) scale(0.100000,-0.100000)" fill="#fefefe" stroke="none">
    <path d="M0 1500 c0 -1500 0 -1500 1500 -1500 1500 0 1500 0 1500 1500 0 1500
0 1500 -1500 1500 -1500 0 -1500 0 -1500 -1500z m1810 1370 c165 -41 280 -114
332 -212 43 -80 35 -820 -10 -910 -86 -175 -168 -198 -713 -198 -478 0 -519
-9 -619 -135 -65 -82 -74 -126 -78 -378 -3 -229 -3 -229 -150 -225 -173 4
-212 17 -299 103 -228 228 -236 894 -12 1130 114 120 109 120 716 123 533 3
533 3 533 62 0 60 0 60 -341 60 -340 0 -340 0 -337 188 4 273 79 353 374 401
38 6 80 13 94 15 75 13 428 -3 510 -24z m811 -712 c376 -174 377 -1100 1
-1285 -76 -38 -76 -38 -604 -41 -528 -3 -528 -3 -528 -57 0 -55 0 -55 340 -55
340 0 340 0 340 -180 0 -204 -5 -224 -77 -291 -225 -209 -954 -202 -1174 13
-85 83 -84 73 -87 502 -3 471 8 522 141 613 96 65 106 66 592 72 496 7 505 8
602 103 90 88 108 152 111 412 4 228 4 228 145 224 127 -3 148 -6 198 -30z" />
    <path d="M1044 2690 c-80 -32 -83 -194 -5 -234 82 -43 179 -6 202 77 31 115
-81 204 -197 157z" />
    <path d="M1824 550 c-53 -21 -82 -93 -64 -158 39 -146 260 -113 260 38 0 97
-100 159 -196 120z" />
  </g>
  <g transform="translate(0.000000,300.000000) scale(0.100000,-0.100000)" fill="#fecf40" stroke="none">
    <path d="M2268 1974 c-3 -260 -21 -324 -111 -412 -97 -95 -106 -96 -602 -103
-486 -6 -496 -7 -592 -72 -133 -91 -144 -141 -141 -623 3 -441 1 -429 87 -512
221 -215 968 -223 1194 -13 72 67 77 86 77 301 0 190 0 190 -340 190 -340 0
-340 0 -340 45 0 44 0 44 528 47 593 3 618 8 723 126 194 217 214 820 37 1080
-92 134 -159 165 -365 170 -151 4 -151 4 -155 -224z m-317 -1441 c75 -45 75
-161 0 -206 -121 -71 -247 82 -153 187 35 38 105 47 153 19z" />
  </g>
  <g transform="translate(0.000000,300.000000) scale(0.100000,-0.100000)" fill="#3875a8" stroke="none">
    <path d="M1290 2904 c-14 -2 -56 -9 -94 -15 -299 -49 -370 -127 -374 -411 -3
-198 -3 -198 337 -198 341 0 341 0 341 -50 0 -49 0 -49 -533 -52 -532 -3 -532
-3 -598 -35 -196 -97 -274 -282 -273 -648 1 -498 130 -686 476 -693 157 -4
157 -4 160 225 4 252 13 296 78 378 100 126 141 135 619 135 545 0 627 23 713
198 45 90 53 850 10 930 -52 98 -166 171 -332 212 -82 21 -453 37 -530 24z
m-105 -236 c121 -95 1 -273 -136 -202 -57 29 -75 111 -38 171 35 57 122 72
174 31z" />
  </g>
</svg>